<?xml version="1.0" encoding="utf-8"?>
<svg xmlns="http://www.w3.org/2000/svg" xmlns:xlink="http://www.w3.org/1999/xlink" style="margin: auto; background: none; display: block; shape-rendering: auto;" width="197px" height="197px" viewBox="0 0 100 100" preserveAspectRatio="xMidYMid">
<g transform="translate(50 50)">
<g>
<animateTransform attributeName="transform" type="rotate" values="0;36" keyTimes="0;1" dur="0.9615384615384615s" repeatCount="indefinite"></animateTransform><path d="M19.8997487421324 -2 L27.8997487421324 -2 L27.8997487421324 2 L19.8997487421324 2 A20 20 0 0 1 17.274805420761542 10.078744846201221 L17.274805420761542 10.078744846201221 L23.74694137576112 14.781026864541005 L21.395800366591228 18.017094842040795 L14.923664411591648 13.31481282370101 A20 20 0 0 1 8.051473577700701 18.307751725091407 L8.051473577700701 18.307751725091407 L10.52360953270028 25.916203855452636 L6.719383467519669 27.15227183295243 L4.247247512520089 19.5438197025912 A20 20 0 0 1 -4.247247512520087 19.5438197025912 L-4.247247512520087 19.5438197025912 L-6.719383467519664 27.15227183295243 L-10.523609532700277 25.91620385545264 L-8.0514735777007 18.30775172509141 A20 20 0 0 1 -14.923664411591647 13.314812823701011 L-14.923664411591647 13.314812823701011 L-21.395800366591224 18.017094842040798 L-23.746941375761118 14.781026864541012 L-17.27480542076154 10.078744846201225 A20 20 0 0 1 -19.8997487421324 2.0000000000000013 L-19.8997487421324 2.0000000000000013 L-27.8997487421324 2.000000000000002 L-27.8997487421324 -1.9999999999999956 L-19.8997487421324 -1.9999999999999964 A20 20 0 0 1 -17.274805420761542 -10.07874484620122 L-17.274805420761542 -10.07874484620122 L-23.74694137576112 -14.781026864541005 L-21.39580036659123 -18.017094842040795 L-14.92366441159165 -13.31481282370101 A20 20 0 0 1 -8.051473577700705 -18.307751725091407 L-8.051473577700705 -18.307751725091407 L-10.523609532700286 -25.916203855452636 L-6.719383467519673 -27.15227183295243 L-4.247247512520092 -19.5438197025912 A20 20 0 0 1 4.247247512520085 -19.5438197025912 L4.247247512520085 -19.5438197025912 L6.719383467519663 -27.15227183295243 L10.523609532700275 -25.91620385545264 L8.051473577700698 -18.30775172509141 A20 20 0 0 1 14.923664411591647 -13.314812823701015 L14.923664411591647 -13.314812823701015 L21.395800366591224 -18.0170948420408 L23.746941375761118 -14.781026864541014 L17.27480542076154 -10.078744846201227 A20 20 0 0 1 19.8997487421324 -2.0000000000000036 M0 -24A24 24 0 1 0 0 24 A24 24 0 1 0 0 -24" fill="#192528"></path></g></g>
<!-- [ldio] generated by https://loading.io/ --></svg>